<svg xmlns="http://www.w3.org/2000/svg" viewBox="0 0 512 512">
  <defs>
    <!-- Background Gradient: Ultra-premium Midnight Space -->
    <linearGradient id="bg" x1="0%" y1="0%" x2="100%" y2="100%">
      <stop offset="0%" stop-color="#050510"/>
      <stop offset="50%" stop-color="#121021"/>
      <stop offset="100%" stop-color="#080710"/>
    </linearGradient>

    <!-- Deep Drop Shadow -->
    <filter id="premium-shadow" x="-20%" y="-20%" width="140%" height="140%">
      <feDropShadow dx="0" dy="16" stdDeviation="24" flood-color="#000000" flood-opacity="0.6"/>
    </filter>

    <!-- Glowing Light FX -->
    <filter id="glow" x="-20%" y="-20%" width="140%" height="140%">
      <feGaussianBlur stdDeviation="8" result="blur"/>
      <feComposite in="SourceGraphic" in2="blur" operator="over"/>
    </filter>

    <!-- Ribbon Gradients for the 3D 'S' / 'C' Fold (Study Calendar) -->
    <linearGradient id="ribbon-cyan" x1="0%" y1="100%" x2="100%" y2="0%">
      <stop offset="0%" stop-color="#06b6d4" />  <!-- Cyan 500 -->
      <stop offset="100%" stop-color="#3b82f6" /> <!-- Blue 500 -->
    </linearGradient>

    <linearGradient id="ribbon-purple" x1="0%" y1="0%" x2="100%" y2="100%">
      <stop offset="0%" stop-color="#6366f1" />  <!-- Indigo 500 -->
      <stop offset="100%" stop-color="#d946ef" /> <!-- Fuchsia 500 -->
    </linearGradient>

    <linearGradient id="ribbon-gold" x1="0%" y1="100%" x2="100%" y2="0%">
      <stop offset="0%" stop-color="#f59e0b" />  <!-- Amber 500 -->
      <stop offset="100%" stop-color="#ef4444" /> <!-- Red 500 -->
    </linearGradient>
  </defs>

  <!-- Base Icon -->
  <rect width="512" height="512" rx="114" fill="url(#bg)"/>

  <!-- Geometric Abstract Origami / Ribbon 
       This shape is completely unique, forming an abstract intertwining of "focus" and "progression" 
       built from vivid, 3D overlapping ribbons. -->
       
  <g transform="translate(116, 116)" filter="url(#premium-shadow)">
    
    <!-- Deepest Back Ribbon (Purple/Fuchsia) - Represents Foundation/Planning -->
    <path d="M 40 40 
             C 40 -20, 160 -20, 240 60
             C 320 140, 280 280, 200 280
             C 160 280, 120 260, 100 220
             L 140 180
             C 160 210, 220 230, 240 160
             C 260 90, 160 30, 100 80 
             Z" 
          fill="url(#ribbon-purple)" />

    <!-- Overlapping Front Swoosh (Cyan/Blue) - Represents Flow/Execution -->
    <path d="M 280 180
             C 280 260, 160 300, 80 220
             C 0 140, 40 0, 120 0
             C 160 0, 200 20, 220 60
             L 180 100
             C 160 70, 100 50, 80 120
             C 60 190, 160 250, 220 200
             Z" 
          fill="url(#ribbon-cyan)" />

    <!-- Dynamic Central Energy / Spark (Gold/Red) - Represents the "Ah-ha" moment/Goal reached -->
    <circle cx="160" cy="140" r="32" fill="url(#ribbon-gold)" filter="url(#glow)"/>
    <circle cx="160" cy="140" r="16" fill="#ffffff" opacity="0.8"/>

    <!-- Geometric Light Accents (Fine lines slicing through the ribbons for extra "premium" detail) -->
    <line x1="80" y1="220" x2="240" y2="60" stroke="#ffffff" stroke-width="2" opacity="0.5" filter="url(#glow)"/>
    <line x1="120" y1="0" x2="200" y2="280" stroke="#ffffff" stroke-width="2" opacity="0.3"/>
  </g>

  <!-- Ambient background stars/particles to elevate the uniqueness -->
  <circle cx="100" cy="100" r="3" fill="#ffffff" opacity="0.6" filter="url(#glow)"/>
  <circle cx="420" cy="160" r="2" fill="#ffffff" opacity="0.4"/>
  <circle cx="80" cy="380" r="4" fill="#06b6d4" opacity="0.8" filter="url(#glow)"/>
  <circle cx="380" cy="400" r="5" fill="#d946ef" opacity="0.7" filter="url(#glow)"/>

</svg>
